<?xml version="1.0" encoding="UTF-8"?><svg id="Layer_2" xmlns="http://www.w3.org/2000/svg" viewBox="0 0 409 409"><defs><style>.cls-1,.cls-2{fill:#fff;}.cls-3{fill:#ffa733;}.cls-2{font-family:Lets-Coffee, 'Lets Coffee';font-size:150px;}</style></defs><g id="Layer_1-2"><rect class="cls-3" width="409" height="409"/><g><g><path class="cls-1" d="M280.88,70.75c-59.54-30.86-132.25-23.02-183.6,20-46.24,38.73-67.04,101.38-54.89,160.21,11.89,57.57,55.76,105.29,111.58,123.12,57.67,18.42,122.57,2.63,165.65-39.74,45.5-44.74,61.6-114.54,39.15-174.53-3.25-8.68-7.14-17.09-11.7-25.15-6.34-11.2-23.63-1.13-17.27,10.09,28.75,50.77,24.53,116.06-12.04,161.86-32.85,41.13-86.73,62.4-138.82,53.05-50.71-9.1-94.42-45.15-111.67-93.95-17.66-49.98-6.76-107.05,29.05-146.35,38.05-41.76,97.72-57.92,151.67-40.84,7.89,2.5,15.44,5.69,22.78,9.49,11.41,5.91,21.54-11.34,10.09-17.27h0Z"/><path class="cls-1" d="M222.73,108.95l55.79-19.46c5.1-1.78,8.48-6.84,6.98-12.3-1.36-4.95-7.18-8.77-12.3-6.98l-55.79,19.46c-5.1,1.78-8.48,6.84-6.98,12.3,1.36,4.95,7.18,8.77,12.3,6.98h0Z"/><path class="cls-1" d="M284.49,74.8l-28.54-50.6c-6.32-11.21-23.61-1.14-17.27,10.09l28.54,50.6c6.32,11.21,23.61,1.14,17.27-10.09h0Z"/></g><text class="cls-2" transform="translate(94.29 301.39)"><tspan x="0" y="0">D</tspan></text><text class="cls-2" transform="translate(191.04 269.18)"><tspan x="0" y="0">M</tspan></text></g></g></svg>