<?xml version="1.0" encoding="UTF-8"?><svg id="Layer_2" xmlns="http://www.w3.org/2000/svg" viewBox="0 0 1500.1 260.28"><defs><style>.cls-1{fill:#ffa733;}</style></defs><g id="Layer_1-2"><g><g><path class="cls-1" d="M174.65,36.09c-43.29-22.3-95.33-16.71-132.71,14.38C8.66,78.14-6.01,123.09,2.26,165.23c8.24,41.96,40.37,76.71,80.88,89.63,41.18,13.13,87.5,1.86,118.51-28.03,38.92-37.52,46.93-97.87,20.51-144.8-7.89-14.02-29.5-1.43-21.59,12.62,5.53,9.83,9.24,20.29,11.19,31.41,.88,5.01,1.16,10.13,1.16,15.21,0,4.4-.45,10.78-.84,13.29-.65,4.25-1.59,8.45-2.76,12.58-.55,1.94-1.15,3.86-1.81,5.76-.44,1.26-.9,2.51-1.38,3.76-.85,2.2,.25-.41-.8,1.92-1.8,4.02-3.86,7.92-6.15,11.68-1.99,3.27-5.02,7.61-6.36,9.26-2.75,3.39-5.71,6.61-8.85,9.64-3.08,2.97-6.83,6.15-9.02,7.7-3.4,2.41-6.88,4.68-10.52,6.72-4.07,2.27-8.51,4.33-11.43,5.43-3.77,1.42-7.62,2.62-11.52,3.59-4.82,1.2-9.37,1.98-12.84,2.29-4.42,.4-8.86,.53-13.29,.38-5.42-.18-8.2-.46-12.46-1.24-17.08-3.11-32.65-10.44-44.77-20.91-3.14-2.71-6.12-5.6-8.92-8.65-3.72-4.05-4.96-5.61-7.8-9.8-4.93-7.28-8.76-14.86-11.17-21.78-5.9-17.01-7.03-34.41-3.45-50.94,3.64-16.82,11.33-31.81,22.41-43.89,12.97-14.13,28.62-23.5,47.07-28.12,10.56-2.65,19.69-3.35,31.45-2.37,11.93,.99,23.71,4.63,34.32,10.1,6,3.09,13.57,1.56,17.1-4.48,3.27-5.6,1.54-14-4.48-17.1h0Z"/><path class="cls-1" d="M133.34,72.63l38.34-13.38c6.37-2.22,10.61-8.56,8.73-15.38-1.7-6.19-8.97-10.96-15.38-8.73l-38.34,13.38c-6.37,2.22-10.61,8.56-8.73,15.38,1.7,6.19,8.97,10.96,15.38,8.73h0Z"/><path class="cls-1" d="M179.16,40.89L159.54,6.11c-7.9-14.01-29.51-1.43-21.59,12.62l19.62,34.78c7.9,14.01,29.51,1.43,21.59-12.62h0Z"/></g><g><path d="M344.27,193.94c-1.5,1.82-3.12,3.5-4.88,5.04-1.76,1.55-3.55,3.07-5.36,4.56-2.35,1.81-4.67,3.52-6.96,5.12-2.29,1.6-4.77,3.04-7.44,4.32-2.67,1.17-5.36,2.27-8.08,3.28-2.72,1.01-5.47,1.89-8.24,2.64-3.42,.64-6.7,.67-9.84,.08-3.15-.59-5.95-1.71-8.4-3.36-2.46-1.66-4.53-3.82-6.24-6.48-1.71-2.67-2.88-5.71-3.52-9.12l-.96-7.2c-.85-6.29-1.6-12.56-2.24-18.8s-1.23-12.56-1.76-18.96c-.54-6.4-.96-12.72-1.28-18.96-.32-6.24-.59-12.56-.8-18.96-.11-3.2-.19-6.4-.24-9.6-.05-3.2-.08-6.35-.08-9.44,0-1.49-.03-2.91-.08-4.24-.06-1.33,.02-2.69,.24-4.08,.21-1.17,.37-2.34,.48-3.52,.1-1.17,.37-2.34,.8-3.52,.21-.85,.5-1.68,.88-2.48,.37-.8,.77-1.57,1.2-2.32,.21-.21,.35-.48,.4-.8,.05-.32,.19-.58,.4-.8,.53-.64,1.06-1.3,1.6-2,.53-.69,1.06-1.3,1.6-1.84,.64-.53,1.31-1.07,2-1.6,.69-.53,1.36-.96,2-1.28,.85-.75,1.81-1.33,2.88-1.76,1.06-.42,2.08-.8,3.04-1.12,1.17-.42,2.32-.69,3.44-.8,1.12-.1,2.26-.21,3.44-.32,.53-.11,1.09-.16,1.68-.16h1.84c2.34,.21,4.69,.54,7.04,.96,.53,.11,1.06,.21,1.6,.32,.53,.11,1.06,.22,1.6,.32,1.81,.54,3.49,1.12,5.04,1.76,1.54,.64,3.17,1.23,4.88,1.76,4.26,1.81,8.42,4.11,12.48,6.88,2.34,1.6,4.64,3.31,6.88,5.12,2.24,1.81,4.37,3.79,6.4,5.92,1.17,1.28,2.29,2.59,3.36,3.92,1.06,1.33,2.19,2.64,3.36,3.92,.74,.85,1.44,1.76,2.08,2.72,.64,.96,1.28,1.98,1.92,3.04,3.09,4.91,5.65,10.08,7.68,15.52,.75,2.13,1.41,4.29,2,6.48,.58,2.19,1.04,4.4,1.36,6.64,.21,1.71,.43,3.42,.64,5.12,.21,1.71,.37,3.42,.48,5.12,.1,1.17,.13,2.35,.08,3.52-.06,1.17-.13,2.35-.24,3.52-.22,2.78-.59,5.55-1.12,8.32-.54,2.77-1.28,5.55-2.24,8.32-.43,1.6-.96,3.17-1.6,4.72-.64,1.55-1.33,3.12-2.08,4.72-.54,.96-1.04,1.98-1.52,3.04-.48,1.07-.99,2.08-1.52,3.04-1.39,2.46-2.96,4.83-4.72,7.12-1.76,2.29-3.55,4.51-5.36,6.64Zm-29.12-9.76c1.92-1.49,3.73-3.09,5.44-4.8,1.71-1.71,3.36-3.46,4.96-5.28,2.99-3.95,5.49-8.05,7.52-12.32,.85-2.13,1.57-4.26,2.16-6.4,.58-2.13,1.04-4.32,1.36-6.56,.53-4.05,.53-8.1,0-12.16-.64-4.48-1.87-8.85-3.68-13.12-1.07-2.24-2.22-4.4-3.44-6.48-1.23-2.08-2.59-4.08-4.08-6-3.1-3.41-6.35-6.42-9.76-9.04-3.42-2.61-7.25-5.14-11.52-7.6-1.17-.64-2.27-1.12-3.28-1.44-1.02-.32-1.92-.32-2.72,0-.8,.32-1.42,1.04-1.84,2.16-.43,1.12-.64,2.75-.64,4.88s.02,4.03,.08,6c.05,1.98,.08,3.98,.08,6,.21,7.25,.48,14.43,.8,21.52,.32,7.09,.75,14.16,1.28,21.2,.53,6.19,1.12,12.32,1.76,18.4s1.39,12.16,2.24,18.24c.32-.11,.61-.21,.88-.32,.27-.1,.56-.21,.88-.32,4.27-1.81,8.1-4,11.52-6.56Z"/><path d="M377.07,217.3c-1.49-1.28-2.45-2.78-2.88-4.48-.54-.85-.88-1.73-1.04-2.64-.16-.91-.24-1.84-.24-2.8,.21-4.37,.34-8.69,.4-12.96,.05-4.27,.19-8.64,.4-13.12,.32-7.68,.61-15.36,.88-23.04,.27-7.68,.61-15.36,1.04-23.04,.43-7.79,.83-15.54,1.2-23.28,.37-7.73,.82-15.49,1.36-23.28,0-2.45,.64-4.8,1.92-7.04,.43-.53,.8-1.01,1.12-1.44,.32-.42,.69-.91,1.12-1.44,1.71-1.7,3.78-2.88,6.24-3.52,.64-.21,1.25-.34,1.84-.4,.58-.05,1.2-.13,1.84-.24,.96,0,1.89,.08,2.8,.24,.91,.16,1.79,.51,2.64,1.04,1.92,.75,3.41,1.71,4.48,2.88,1.28,1.18,2.29,2.72,3.04,4.64,.85,1.81,1.23,3.58,1.12,5.28-.22,4.48-.46,8.85-.72,13.12-.27,4.27-.51,8.59-.72,12.96-.43,7.68-.83,15.36-1.2,23.04-.38,7.68-.72,15.42-1.04,23.2-.32,7.68-.61,15.39-.88,23.12-.27,7.74-.51,15.5-.72,23.28,0,2.56-.64,4.96-1.92,7.2-.32,.42-.67,.85-1.04,1.28-.38,.43-.72,.91-1.04,1.44-1.81,1.81-3.9,3.04-6.24,3.68l-3.84,.48c-1.71,.1-3.52-.27-5.44-1.12-1.71-.64-3.2-1.66-4.48-3.04Z"/><path d="M475.63,196.98c-1.5-1.81-2.88-3.62-4.16-5.44-1.28-1.81-2.51-3.62-3.68-5.44-1.81-2.99-3.57-5.92-5.28-8.8-1.71-2.88-3.47-5.76-5.28-8.64-1.81-3.09-3.68-6.11-5.6-9.04-1.92-2.93-3.84-5.89-5.76-8.88-1.07-1.6-2.11-3.17-3.12-4.72-1.01-1.54-2.05-3.12-3.12-4.72,.21,3.31,.42,6.62,.64,9.92,.21,3.31,.43,6.62,.64,9.92,.53,6.51,1.06,13.01,1.6,19.52,.53,6.51,1.12,13.01,1.76,19.52,0,2.56-.64,4.96-1.92,7.2-.64,.96-1.39,1.87-2.24,2.72-1.92,1.92-3.95,3.15-6.08,3.68l-3.84,.48c-1.71,.1-3.52-.27-5.44-1.12-1.71-.64-3.2-1.66-4.48-3.04-1.49-1.28-2.45-2.77-2.88-4.48-.54-.85-.88-1.73-1.04-2.64-.16-.9-.24-1.84-.24-2.8-.32-3.73-.67-7.41-1.04-11.04-.38-3.62-.67-7.3-.88-11.04-1.07-12.8-2.03-25.87-2.88-39.2-.43-6.5-.77-13.01-1.04-19.52-.27-6.5-.51-13.07-.72-19.68-.22-2.45,.34-4.77,1.68-6.96,1.33-2.18,3.07-3.92,5.2-5.2,2.24-1.28,4.64-1.92,7.2-1.92s4.8,.64,7.04,1.92c1.28,.64,2.48,1.39,3.6,2.24,1.12,.86,2.27,1.71,3.44,2.56,.64,.54,1.28,1.09,1.92,1.68,.64,.59,1.22,1.2,1.76,1.84,1.06,1.07,2.02,2.16,2.88,3.28,.85,1.12,1.71,2.27,2.56,3.44,.53,.64,1.06,1.31,1.6,2,.53,.69,1.06,1.47,1.6,2.32,4.27,5.98,8.42,11.98,12.48,18,4.05,6.03,8.1,12.19,12.16,18.48,1.28,2.03,2.56,4.03,3.84,6,1.28,1.97,2.56,4.03,3.84,6.16,0-1.49,.02-2.93,.08-4.32,.05-1.38,.08-2.83,.08-4.32,0-2.24,.02-5.14,.08-8.72,.05-3.57,.08-7.3,.08-11.2s-.03-7.62-.08-11.2c-.06-3.57-.14-6.48-.24-8.72,0-2.56,.64-4.91,1.92-7.04,.43-.53,.8-1.01,1.12-1.44,.32-.43,.69-.91,1.12-1.44,1.81-1.81,3.89-3.04,6.24-3.68,.53-.11,1.12-.19,1.76-.24,.64-.05,1.28-.13,1.92-.24,1.71-.1,3.52,.27,5.44,1.12,1.71,.64,3.2,1.66,4.48,3.04,1.39,1.28,2.4,2.78,3.04,4.48,.85,1.92,1.23,3.73,1.12,5.44,.21,2.78,.34,5.5,.4,8.16,.05,2.67,.13,5.33,.24,8,0,2.46-.03,5.58-.08,9.36-.06,3.79-.14,7.68-.24,11.68-.11,4-.27,7.89-.48,11.68-.21,3.79-.38,6.86-.48,9.2-.32,5.44-.77,10.83-1.36,16.16-.59,5.33-1.31,10.67-2.16,16-.64,2.46-1.81,4.54-3.52,6.24-1.28,1.39-2.83,2.35-4.64,2.88-1.39,.85-3.2,1.28-5.44,1.28-2.45,0-4.8-.64-7.04-1.92-3.84-2.45-7.2-5.38-10.08-8.8Z"/><path d="M582.51,196.98c-1.5-1.81-2.88-3.62-4.16-5.44-1.28-1.81-2.51-3.62-3.68-5.44-1.81-2.99-3.57-5.92-5.28-8.8-1.71-2.88-3.47-5.76-5.28-8.64-1.81-3.09-3.68-6.11-5.6-9.04-1.92-2.93-3.84-5.89-5.76-8.88-1.07-1.6-2.11-3.17-3.12-4.72-1.01-1.54-2.05-3.12-3.12-4.72,.21,3.31,.42,6.62,.64,9.92,.21,3.31,.43,6.62,.64,9.92,.53,6.51,1.06,13.01,1.6,19.52,.53,6.51,1.12,13.01,1.76,19.52,0,2.56-.64,4.96-1.92,7.2-.64,.96-1.39,1.87-2.24,2.72-1.92,1.92-3.95,3.15-6.08,3.68l-3.84,.48c-1.71,.1-3.52-.27-5.44-1.12-1.71-.64-3.2-1.66-4.48-3.04-1.49-1.28-2.45-2.77-2.88-4.48-.54-.85-.88-1.73-1.04-2.64-.16-.9-.24-1.84-.24-2.8-.32-3.73-.67-7.41-1.04-11.04-.38-3.62-.67-7.3-.88-11.04-1.07-12.8-2.03-25.87-2.88-39.2-.43-6.5-.77-13.01-1.04-19.52-.27-6.5-.51-13.07-.72-19.68-.22-2.45,.34-4.77,1.68-6.96,1.33-2.18,3.07-3.92,5.2-5.2,2.24-1.28,4.64-1.92,7.2-1.92s4.8,.64,7.04,1.92c1.28,.64,2.48,1.39,3.6,2.24,1.12,.86,2.27,1.71,3.44,2.56,.64,.54,1.28,1.09,1.92,1.68,.64,.59,1.22,1.2,1.76,1.84,1.06,1.07,2.02,2.16,2.88,3.28,.85,1.12,1.71,2.27,2.56,3.44,.53,.64,1.06,1.31,1.6,2,.53,.69,1.06,1.47,1.6,2.32,4.27,5.98,8.42,11.98,12.48,18,4.05,6.03,8.1,12.19,12.16,18.48,1.28,2.03,2.56,4.03,3.84,6,1.28,1.97,2.56,4.03,3.84,6.16,0-1.49,.02-2.93,.08-4.32,.05-1.38,.08-2.83,.08-4.32,0-2.24,.02-5.14,.08-8.72,.05-3.57,.08-7.3,.08-11.2s-.03-7.62-.08-11.2c-.06-3.57-.14-6.48-.24-8.72,0-2.56,.64-4.91,1.92-7.04,.43-.53,.8-1.01,1.12-1.44,.32-.43,.69-.91,1.12-1.44,1.81-1.81,3.89-3.04,6.24-3.68,.53-.11,1.12-.19,1.76-.24,.64-.05,1.28-.13,1.92-.24,1.71-.1,3.52,.27,5.44,1.12,1.71,.64,3.2,1.66,4.48,3.04,1.39,1.28,2.4,2.78,3.04,4.48,.85,1.92,1.23,3.73,1.12,5.44,.21,2.78,.34,5.5,.4,8.16,.05,2.67,.13,5.33,.24,8,0,2.46-.03,5.58-.08,9.36-.06,3.79-.14,7.68-.24,11.68-.11,4-.27,7.89-.48,11.68-.21,3.79-.38,6.86-.48,9.2-.32,5.44-.77,10.83-1.36,16.16-.59,5.33-1.31,10.67-2.16,16-.64,2.46-1.81,4.54-3.52,6.24-1.28,1.39-2.83,2.35-4.64,2.88-1.39,.85-3.2,1.28-5.44,1.28-2.45,0-4.8-.64-7.04-1.92-3.84-2.45-7.2-5.38-10.08-8.8Z"/><path d="M654.83,113.46c-.54,3.42-.85,6.67-.96,9.76-.32,2.88-.48,5.66-.48,8.32,4.8,0,9.6-.32,14.4-.96,2.45,0,4.8,.64,7.04,1.92,.53,.43,1.01,.83,1.44,1.2,.42,.38,.9,.72,1.44,1.04,1.71,1.71,2.88,3.79,3.52,6.24,.1,.64,.21,1.28,.32,1.92,.1,.64,.21,1.23,.32,1.76,0,2.24-.43,4.05-1.28,5.44-.64,1.82-1.6,3.36-2.88,4.64-1.28,1.28-2.83,2.24-4.64,2.88-1.71,.85-3.47,1.28-5.28,1.28-2.24,.21-4.48,.4-6.72,.56-2.24,.16-4.43,.24-6.56,.24,0,.53,.03,1.09,.08,1.68,.05,.59,.13,1.15,.24,1.68,.53,3.95,1.17,7.68,1.92,11.2,.32,1.5,.64,2.91,.96,4.24,.32,1.33,.75,2.69,1.28,4.08,.32,.85,.69,1.55,1.12,2.08l.32,.32,.16,.16c.21,.11,.53,.16,.96,.16,.75,.21,1.54,.21,2.4,0,2.13-.42,4.26-1.07,6.4-1.92,4.8-2.13,9.23-4.69,13.28-7.68,1.71-1.71,3.73-2.88,6.08-3.52,.64-.1,1.25-.18,1.84-.24,.58-.05,1.2-.13,1.84-.24,2.56,0,4.96,.64,7.2,1.92,.53,.43,1.01,.8,1.44,1.12,.43,.32,.85,.7,1.28,1.12,1.38,1.28,2.4,2.78,3.04,4.48,.85,1.92,1.23,3.74,1.12,5.44,.11,1.82-.27,3.63-1.12,5.44-.64,1.71-1.66,3.2-3.04,4.48-2.24,1.81-4.43,3.52-6.56,5.12-2.88,1.92-5.76,3.68-8.64,5.28-3.84,2.13-7.84,3.84-12,5.12-.85,.21-1.63,.42-2.32,.64-.7,.21-1.42,.43-2.16,.64-1.39,.21-2.75,.42-4.08,.64-1.33,.21-2.69,.37-4.08,.48-1.39,0-2.72-.08-4-.24-1.28-.16-2.61-.35-4-.56-.64-.11-1.31-.24-2-.4-.69-.16-1.36-.4-2-.72-.85-.32-1.73-.67-2.64-1.04-.91-.37-1.79-.83-2.64-1.36-.85-.42-1.63-.93-2.32-1.52-.7-.58-1.36-1.14-2-1.68-1.18-.75-2.14-1.71-2.88-2.88-.85-1.07-1.65-2.08-2.4-3.04-.75-.96-1.39-2.03-1.92-3.2-.54-1.17-1.07-2.34-1.6-3.52-.53-1.17-1.01-2.4-1.44-3.68-.54-1.38-.96-2.8-1.28-4.24-.32-1.44-.64-2.91-.96-4.4-.32-1.81-.64-3.6-.96-5.36-.32-1.76-.59-3.54-.8-5.36-1.28-8.32-2.08-16.8-2.4-25.44-.21-3.62-.27-7.22-.16-10.8,.1-3.57,.27-7.22,.48-10.96,.21-1.81,.4-3.65,.56-5.52,.16-1.87,.35-3.71,.56-5.52,.32-2.24,.64-4.5,.96-6.8,.32-2.29,.85-4.5,1.6-6.64,.32-.96,.67-1.89,1.04-2.8,.37-.9,.77-1.79,1.2-2.64,.43-1.07,.75-1.81,.96-2.24,1.17-2.13,2.72-4.21,4.64-6.24,.85-.96,1.76-1.84,2.72-2.64s1.97-1.57,3.04-2.32c1.06-.75,2.21-1.38,3.44-1.92,1.23-.53,2.42-1.01,3.6-1.44,.42-.11,1.17-.27,2.24-.48,.96-.21,1.95-.37,2.96-.48,1.01-.11,2.05-.16,3.12-.16,1.06,.11,2.1,.21,3.12,.32,1.01,.11,2,.27,2.96,.48,.53,.11,.98,.19,1.36,.24,.37,.05,.83,.13,1.36,.24,1.71,.43,3.41,.88,5.12,1.36,1.71,.48,3.41,.99,5.12,1.52,4.05,1.17,8.02,2.51,11.92,4,3.89,1.5,7.71,3.09,11.44,4.8,2.24,1.39,3.95,3.09,5.12,5.12l1.44,3.36c.64,2.46,.64,4.91,0,7.36l-1.44,3.36c-.96,1.81-2.19,3.15-3.68,4-1.17,1.17-2.77,2.03-4.8,2.56-1.71,.54-3.58,.64-5.6,.32-1.81-.11-3.57-.69-5.28-1.76-.22-.11-.4-.19-.56-.24-.16-.05-.35-.13-.56-.24-.85-.32-1.68-.67-2.48-1.04-.8-.37-1.63-.67-2.48-.88-1.92-.85-3.87-1.6-5.84-2.24-1.98-.64-3.98-1.22-6-1.76-1.6-.53-3.23-1.01-4.88-1.44-1.65-.42-3.33-.8-5.04-1.12-.11,0-.19-.03-.24-.08-.06-.05-.14-.08-.24-.08-.11,.11-.19,.21-.24,.32-.06,.11-.14,.22-.24,.32-.21,.21-.38,.48-.48,.8-.11,.32-.27,.59-.48,.8-.53,1.28-.91,2.56-1.12,3.84-.21,1.28-.43,2.56-.64,3.84Z"/><path d="M746.66,176.34c.53,5.23,1.06,10.43,1.6,15.6,.53,5.17,1.06,10.32,1.6,15.44,0,2.56-.64,4.96-1.92,7.2-.32,.53-.67,1.01-1.04,1.44-.38,.42-.72,.91-1.04,1.44-1.92,1.71-4,2.88-6.24,3.52l-3.84,.48c-1.71,.1-3.52-.27-5.44-1.12-1.71-.64-3.2-1.6-4.48-2.88-1.39-1.28-2.35-2.83-2.88-4.64-.54-.85-.88-1.73-1.04-2.64-.16-.91-.24-1.84-.24-2.8-.22-1.28-.35-2.53-.4-3.76-.05-1.23-.19-2.48-.4-3.76-.53-5.12-1.04-10.26-1.52-15.44-.48-5.17-.99-10.32-1.52-15.44-.96-10.34-1.76-20.75-2.4-31.2-.32-5.12-.61-10.26-.88-15.44-.27-5.17-.51-10.37-.72-15.6-.21-2.66-.35-5.28-.4-7.84-.06-2.56-.13-5.12-.24-7.68v-1.6c0-.53,.05-1.07,.16-1.6,0-.53,.05-1.3,.16-2.32,.1-1.01,.32-1.89,.64-2.64,0-.21,.05-.37,.16-.48,.21-.53,.45-1.12,.72-1.76,.27-.64,.5-1.22,.72-1.76,.11-.1,.16-.18,.16-.24,0-.05,.05-.13,.16-.24,.85-1.28,1.54-2.21,2.08-2.8,.53-.58,1.33-1.3,2.4-2.16,.53-.32,.96-.64,1.28-.96,.32-.32,.75-.58,1.28-.8,1.06-.53,2.08-.98,3.04-1.36,.96-.37,1.97-.67,3.04-.88,1.17-.21,2.4-.45,3.68-.72,1.28-.26,2.5-.5,3.68-.72,1.81-.21,3.62-.42,5.44-.64,1.81-.21,3.62-.43,5.44-.64,6.19-.32,12.27,.16,18.24,1.44,1.06,.21,2.1,.46,3.12,.72,1.01,.27,2,.56,2.96,.88,2.99,1.07,5.87,2.29,8.64,3.68,.85,.43,1.71,.91,2.56,1.44,.85,.54,1.71,1.07,2.56,1.6,1.17,.96,2.37,1.89,3.6,2.8,1.23,.91,2.37,1.95,3.44,3.12,2.24,2.24,4.16,4.64,5.76,7.2,.96,1.39,1.76,2.83,2.4,4.32,.64,1.5,1.28,2.99,1.92,4.48,.85,2.13,1.44,4.16,1.76,6.08,.21,1.71,.43,3.36,.64,4.96,.21,1.6,.32,3.25,.32,4.96s-.11,3.39-.32,5.04c-.21,1.65-.48,3.33-.8,5.04-.32,2.35-.86,4.43-1.6,6.24-1.71,5.23-3.95,9.87-6.72,13.92-1.5,2.14-3.04,4.16-4.64,6.08-1.6,1.92-3.36,3.68-5.28,5.28-1.17,1.07-2.38,2.05-3.6,2.96-1.23,.91-2.48,1.79-3.76,2.64-.43,.32-.83,.62-1.2,.88-.38,.27-.77,.51-1.2,.72,1.81,1.5,3.57,2.96,5.28,4.4,1.71,1.44,3.41,2.91,5.12,4.4,3.3,2.88,6.5,5.84,9.6,8.88,3.09,3.04,6.08,6.16,8.96,9.36,1.92,1.92,3.15,3.95,3.68,6.08l.48,3.84c0,2.67-.64,5.01-1.92,7.04-.43,.54-.8,1.01-1.12,1.44-.32,.43-.69,.91-1.12,1.44-1.28,1.49-2.78,2.45-4.48,2.88-1.6,.85-3.42,1.28-5.44,1.28s-3.84-.43-5.44-1.28c-1.71-.43-3.2-1.39-4.48-2.88-1.17-1.17-2.27-2.32-3.28-3.44-1.02-1.12-2.11-2.26-3.28-3.44-7.15-7.15-14.99-14.08-23.52-20.8-1.39-1.07-2.8-2.13-4.24-3.2-1.44-1.07-2.91-2.08-4.4-3.04Zm10.4-81.12c-4.69-.32-9.07-.26-13.12,.16-.43,.11-.85,.19-1.28,.24-.43,.05-.85,.13-1.28,.24,.1,.86,.16,1.66,.16,2.4v2.4c.1,2.13,.21,4.32,.32,6.56,.1,2.24,.21,4.43,.32,6.56,.21,5.12,.48,10.16,.8,15.12s.64,9.95,.96,14.96h2.88c.75,0,1.55-.05,2.4-.16,2.88-.53,5.65-1.33,8.32-2.4,1.38-.53,2.72-1.2,4-2s2.5-1.62,3.68-2.48c2.24-1.71,4.21-3.68,5.92-5.92,.75-1.06,1.44-2.13,2.08-3.2,.64-1.07,1.22-2.19,1.76-3.36,.85-2.34,1.49-4.64,1.92-6.88,.1-1.92,.1-3.89,0-5.92-.11-.75-.27-1.46-.48-2.16-.21-.69-.43-1.41-.64-2.16-.32-.53-.64-1.07-.96-1.6-.32-.53-.64-1.07-.96-1.6-1.07-1.28-2.24-2.45-3.52-3.52-1.81-1.28-3.63-2.29-5.44-3.04-1.28-.53-2.56-.99-3.84-1.36-1.28-.37-2.62-.67-4-.88Z"/><path d="M937.96,103.22c1.18,8.54,2.33,17.01,3.46,25.44,1.12,8.43,2.17,16.96,3.14,25.6,.86,8,1.69,15.95,2.49,23.84,.81,7.9,1.53,15.84,2.17,23.84,0,2.56-.65,4.96-1.93,7.2-.32,.54-.67,1.01-1.05,1.44-.38,.43-.73,.9-1.04,1.44-1.93,1.71-4.03,2.88-6.28,3.52l-3.86,.48c-1.72,.11-3.54-.27-5.47-1.12-1.72-.64-3.22-1.6-4.51-2.88-1.4-1.28-2.36-2.83-2.9-4.64-.54-.85-.89-1.73-1.05-2.64-.16-.9-.24-1.84-.24-2.8-.21-3.09-.45-6.13-.71-9.12-.26-2.98-.55-6.02-.86-9.12-.95-10.67-2.04-21.44-3.31-32.32-.42-3.09-.79-6.19-1.1-9.28-.31-3.09-.68-6.18-1.1-9.28-.75,1.82-1.47,3.63-2.17,5.44-.69,1.82-1.41,3.63-2.16,5.44-2.56,6.08-5.21,12.08-7.94,18-2.73,5.92-5.58,11.81-8.57,17.68-1.28,2.13-2.99,3.84-5.13,5.12l-3.36,1.44c-2.57,.64-5.08,.64-7.54,0l-3.37-1.44c-1.6-.96-2.94-2.19-4.01-3.68-.75-.96-1.33-1.92-1.76-2.88-.85-.96-1.55-2.34-2.08-4.16-1.18-2.77-2.35-5.6-3.53-8.48-1.17-2.88-2.35-5.76-3.52-8.64-2.14-5.12-4.25-10.16-6.33-15.12s-4.19-10-6.33-15.12v32.16c.1,15.57,.43,31.09,.96,46.56,0,2.56-.64,4.96-1.92,7.2-.32,.53-.67,1.01-1.04,1.44-.38,.43-.72,.85-1.04,1.28-1.81,1.81-3.9,3.04-6.24,3.68l-3.84,.48c-1.71,.11-3.52-.27-5.44-1.12-1.81-.75-3.31-1.76-4.48-3.04-1.5-1.28-2.46-2.77-2.88-4.48-.54-.85-.88-1.73-1.04-2.64-.16-.9-.24-1.84-.24-2.8v-3.36c-.22-4.37-.35-8.69-.4-12.96-.05-4.26-.13-8.58-.24-12.96-.11-4.48-.19-8.88-.24-13.2-.05-4.32-.08-8.67-.08-13.04v-26.24c.1-4.37,.19-8.72,.24-13.04,.05-4.32,.13-8.72,.24-13.2,0-2.45,.08-4.85,.24-7.2,.16-2.34,.45-4.75,.88-7.2,.32-1.7,.8-3.36,1.44-4.96,.43-.96,.8-1.89,1.12-2.8,.32-.9,.75-1.79,1.28-2.64,.53-.85,1.12-1.68,1.76-2.48,.64-.8,1.23-1.62,1.76-2.48,1.28-1.28,2.82-2.24,4.64-2.88,1.06-.64,2.24-.96,3.52-.96,2.02-.32,3.89-.21,5.6,.32l3.36,1.44c1.17,.75,2.29,1.55,3.36,2.4,1.06,.85,2.02,1.76,2.88,2.72,1.92,2.24,3.52,4.38,4.8,6.4,.85,1.28,1.6,2.62,2.24,4,.64,1.39,1.28,2.83,1.92,4.32,2.98,7.04,5.92,14.03,8.8,20.96,2.88,6.94,5.76,13.92,8.64,20.96,.85,1.82,1.62,3.68,2.32,5.6,.69,1.92,1.47,3.79,2.32,5.6,.21-.53,.45-1.07,.72-1.6,.27-.53,.51-1.07,.72-1.6,.85-2.13,1.68-4.21,2.48-6.24,.8-2.02,1.62-4.1,2.48-6.24,3.31-8.43,6.34-17.17,9.12-26.24,.32-1.07,.64-2.08,.96-3.04,.32-.96,.64-1.97,.96-3.04,.42-1.49,.93-2.93,1.52-4.32,.58-1.38,1.15-2.83,1.68-4.32,.43-.85,.85-1.65,1.28-2.4,.42-.75,.9-1.54,1.44-2.4,.53-.85,1.12-1.68,1.76-2.48,.64-.8,1.33-1.57,2.08-2.32,.75-.75,1.52-1.44,2.32-2.08,.8-.64,1.62-1.22,2.48-1.76,2.24-1.28,4.58-1.92,7.04-1.92,1.82-.11,3.65,.27,5.47,1.12,1.93,.75,3.48,1.76,4.67,3.04,1.71,1.5,2.9,3.52,3.54,6.08,.75,4.48,1.45,8.93,2.09,13.36,.64,4.43,1.29,8.88,1.93,13.36Z"/><path d="M981.54,209.3c-1.81,1.81-3.9,3.04-6.24,3.68-.53,.11-1.12,.19-1.76,.24-.64,.05-1.28,.13-1.92,.24-1.71,.1-3.52-.27-5.44-1.12-1.71-.64-3.2-1.65-4.48-3.04-1.49-1.28-2.45-2.77-2.88-4.48-.96-1.81-1.39-3.62-1.28-5.44-.11-1.17-.19-2.27-.24-3.28-.05-1.01-.08-2.1-.08-3.28-.21-2.67-.32-5.33-.32-8s.05-5.33,.16-8c-.11-.21-.16-.48-.16-.8s-.06-.58-.16-.8c0-1.07,.16-2.18,.48-3.36,0-.85,.03-1.76,.08-2.72,.05-.96,.13-1.87,.24-2.72,.53-9.71,1.65-19.25,3.36-28.64,.64-3.73,1.44-7.44,2.41-11.12,.96-3.68,2.19-7.28,3.69-10.8,.85-2.24,1.81-4.48,2.88-6.72,1.07-2.24,2.24-4.42,3.53-6.56,.85-1.39,1.87-2.93,3.05-4.64,.85-1.17,1.73-2.32,2.64-3.44,.91-1.12,1.9-2.27,2.97-3.44,1.07-1.06,2.16-2.05,3.28-2.96,1.12-.91,2.27-1.79,3.45-2.64,1.28-1.07,2.72-2.03,4.33-2.88,.96-.43,1.92-.83,2.88-1.2,.96-.37,1.92-.72,2.89-1.04,1.07-.42,1.87-.64,2.4-.64,2.35-.53,4.43-.8,6.25-.8,.43-.1,.85-.13,1.28-.08,.43,.06,.91,.08,1.44,.08,1.49,.21,2.94,.43,4.33,.64,1.39,.21,2.78,.59,4.17,1.12,2.99,.96,5.66,2.24,8.01,3.84,.85,.54,1.68,1.12,2.48,1.76,.8,.64,1.63,1.28,2.48,1.92,.43,.32,1.07,.91,1.93,1.76l1.92,1.92c.64,.86,1.28,1.71,1.92,2.56,.64,.85,1.28,1.71,1.93,2.56,1.5,2.03,2.75,4.19,3.77,6.48,1.01,2.29,1.95,4.62,2.8,6.96,.75,1.81,1.36,3.68,1.84,5.6s.99,3.9,1.52,5.92c.53,2.03,.99,4.08,1.36,6.16,.37,2.08,.72,4.19,1.04,6.32,.96,5.23,1.6,10.62,1.92,16.16,.43,4.27,.69,8.51,.8,12.72,.1,4.21,.1,8.51,0,12.88-.11,4.27-.21,8.51-.32,12.72-.11,4.21-.27,8.51-.48,12.88,0,2.67-.65,5.02-1.93,7.04-.43,.54-.83,1.02-1.21,1.44-.38,.43-.73,.91-1.04,1.44-1.83,1.81-3.92,3.04-6.28,3.68-.65,.1-1.29,.18-1.93,.24-.65,.05-1.24,.13-1.77,.24-2.26,0-4.08-.43-5.47-1.28-1.83-.54-3.38-1.5-4.67-2.88-1.29-1.28-2.25-2.77-2.9-4.48-.85-1.92-1.23-3.73-1.12-5.44l.48-13.44v-.32c-.75,0-1.47,.03-2.16,.08-.69,.05-1.41,.08-2.16,.08-12.27,.54-24.38,.86-36.32,.96,.1,1.82,.19,3.55,.24,5.2,.05,1.66,.13,3.33,.24,5.04,0,2.67-.64,5.01-1.92,7.04-.43,.54-.8,1.01-1.12,1.44-.32,.43-.7,.91-1.12,1.44Zm5.6-57.76c-.43,2.99-.75,5.97-.96,8.96,0,.21-.03,.35-.08,.4-.06,.06-.08,.14-.08,.24,6.72-.1,13.38-.26,20-.48,6.61-.21,13.28-.43,20-.64-.22-2.77-.4-5.57-.56-8.4-.16-2.83-.4-5.62-.72-8.4-.43-2.34-.83-4.64-1.2-6.88-.38-2.24-.83-4.48-1.36-6.72-.53-2.03-1.09-4.05-1.68-6.08-.59-2.03-1.25-4-2-5.92-.96-2.13-2.14-4.16-3.52-6.08-.54-.85-1.33-1.71-2.4-2.56-.75-.53-1.5-.96-2.24-1.28-.32-.11-.61-.19-.88-.24-.27-.05-.56-.13-.88-.24h-.8c-.21,0-.64,.11-1.28,.32-.75,.43-1.44,.85-2.08,1.28-.85,.64-1.6,1.31-2.24,2-.64,.7-1.28,1.47-1.92,2.32-2.67,3.63-4.85,7.42-6.56,11.36-.32,.85-.61,1.65-.88,2.4-.27,.75-.56,1.55-.88,2.4-2.24,7.15-3.84,14.56-4.8,22.24Z"/><path d="M1134.34,211.86c-1.17,.75-2.43,1.39-3.76,1.92-1.33,.53-2.7,1.07-4.08,1.6-1.71,.75-3.42,1.17-5.12,1.28-1.5,.21-2.96,.42-4.4,.64-1.44,.21-2.91,.32-4.4,.32s-2.96-.11-4.4-.32c-1.44-.21-2.91-.43-4.4-.64-.85-.22-1.71-.4-2.56-.56-.85-.16-1.71-.4-2.56-.72-.96-.32-1.9-.67-2.8-1.04-.91-.38-1.84-.78-2.8-1.2-.43-.21-.83-.43-1.2-.64-.38-.21-.77-.43-1.2-.64-1.18-.75-2.35-1.54-3.52-2.4-1.18-.85-2.35-1.71-3.52-2.56-1.5-1.28-2.72-2.56-3.68-3.84-1.92-2.02-3.68-4.26-5.28-6.72-.96-1.38-1.76-2.93-2.4-4.64-1.17-2.45-2.29-5.12-3.36-8-1.5-4.05-2.59-8.16-3.28-12.32-.7-4.16-1.31-8.32-1.84-12.48-.53-4.48-.88-8.88-1.04-13.2-.16-4.32,.03-8.72,.56-13.2,.32-2.56,.72-5.12,1.2-7.68,.48-2.56,1.15-5.06,2-7.52,.53-1.38,1.06-2.75,1.6-4.08,.53-1.33,1.06-2.64,1.6-3.92,.42-.85,.82-1.65,1.2-2.4,.37-.75,.83-1.49,1.36-2.24,1.39-2.35,3.09-4.69,5.12-7.04,.96-1.39,2.08-2.67,3.36-3.84,1.07-1.06,2.13-2.02,3.2-2.88,1.06-.85,2.19-1.71,3.36-2.56,1.39-1.07,2.83-2.03,4.32-2.88,.42-.21,.82-.4,1.2-.56,.37-.16,.72-.34,1.04-.56,.96-.42,1.89-.83,2.8-1.2,.9-.37,1.78-.72,2.64-1.04,.85-.21,1.65-.42,2.4-.64,.74-.21,1.54-.37,2.4-.48,1.38-.21,2.74-.42,4.08-.64,1.33-.21,2.74-.32,4.24-.32,2.13,0,4.32,.16,6.56,.48,1.17,.21,2.29,.4,3.36,.56,1.06,.16,2.13,.4,3.2,.72,.42,.22,.8,.35,1.12,.4,.32,.05,.69,.19,1.12,.4,.85,.43,1.73,.8,2.64,1.12,.91,.32,1.79,.75,2.64,1.28,2.24,1.17,4.48,2.72,6.72,4.64,1.28,.96,2.4,2.08,3.36,3.36,1.81,1.82,3.04,3.9,3.68,6.24,.1,.54,.19,1.12,.24,1.76,.05,.64,.13,1.28,.24,1.92,0,2.67-.64,5.02-1.92,7.04-.43,.54-.8,1.02-1.12,1.44-.32,.43-.69,.91-1.12,1.44-1.28,1.5-2.78,2.46-4.48,2.88-1.6,.85-3.42,1.28-5.44,1.28-.96,0-1.89-.08-2.8-.24-.91-.16-1.79-.5-2.64-1.04-1.71-.43-3.2-1.39-4.48-2.88-.43-.42-.83-.82-1.2-1.2-.38-.37-.77-.72-1.2-1.04-.32-.21-.67-.45-1.04-.72-.38-.26-.77-.5-1.2-.72-.54-.21-1.1-.37-1.68-.48-.59-.11-1.2-.27-1.84-.48h-4.32c-.75,.21-1.44,.4-2.08,.56-.64,.16-1.28,.35-1.92,.56-.75,.43-1.44,.83-2.08,1.2-.64,.38-1.28,.77-1.92,1.2-.85,.75-1.65,1.47-2.4,2.16-.75,.7-1.44,1.47-2.08,2.32-.85,1.17-1.63,2.38-2.32,3.6-.69,1.23-1.31,2.48-1.84,3.76-1.39,3.52-2.35,7.15-2.88,10.88-.53,4.05-.69,8.08-.48,12.08,.21,4,.58,8.03,1.12,12.08,.42,3.09,.96,6.19,1.6,9.28,.64,3.1,1.54,6.19,2.72,9.28,.53,1.07,1.09,2.11,1.68,3.12,.58,1.01,1.2,2,1.84,2.96,.96,1.07,1.97,2.08,3.04,3.04,1.06,.85,2.19,1.5,3.36,1.92,.74,.21,1.46,.43,2.16,.64,.69,.22,1.41,.38,2.16,.48,1.49,.21,2.98,.21,4.48,0,1.38-.21,2.61-.53,3.68-.96,1.28-.53,2.34-1.17,3.2-1.92,.96-.75,1.97-1.71,3.04-2.88,.43-.64,.83-1.28,1.2-1.92,.37-.64,.72-1.28,1.04-1.92,.21-.64,.4-1.28,.56-1.92,.16-.64,.29-1.28,.4-1.92,0-.1,.02-.18,.08-.24,.05-.05,.08-.13,.08-.24,0-2.56,.64-4.96,1.92-7.2,.32-.53,.66-1.01,1.04-1.44,.37-.42,.72-.85,1.04-1.28,1.81-1.81,3.89-3.04,6.24-3.68l3.84-.48c1.71-.11,3.52,.27,5.44,1.12,1.81,.75,3.31,1.76,4.48,3.04,1.49,1.28,2.45,2.77,2.88,4.48,.53,.86,.88,1.74,1.04,2.64,.16,.91,.24,1.84,.24,2.8-.11,1.07-.21,2.08-.32,3.04-.11,.96-.27,1.97-.48,3.04-.11,.43-.16,.83-.16,1.2s-.11,.77-.32,1.2c-.32,1.6-.8,3.2-1.44,4.8-.54,1.39-1.1,2.72-1.68,4-.59,1.28-1.25,2.56-2,3.84-1.39,2.24-3.1,4.48-5.12,6.72-.54,.64-1.09,1.28-1.68,1.92-.59,.64-1.2,1.23-1.84,1.76-1.17,.86-2.32,1.71-3.44,2.56-1.12,.85-2.32,1.65-3.6,2.4Z"/><path d="M1164.58,204.18c-.64-8.32-1.12-16.75-1.44-25.28-.32-7.57-.51-15.09-.56-22.56-.06-7.46,.02-14.93,.24-22.4,.32-15.14,1.12-30.24,2.4-45.28,0-2.45,.64-4.8,1.92-7.04,.42-.53,.8-1.01,1.12-1.44,.32-.42,.69-.91,1.12-1.44,1.71-1.7,3.79-2.88,6.24-3.52,.64-.21,1.28-.34,1.92-.4,.64-.05,1.23-.13,1.76-.24,.96,0,1.89,.08,2.8,.24,.9,.16,1.78,.51,2.64,1.04,1.81,.64,3.36,1.6,4.64,2.88,1.28,1.28,2.24,2.83,2.88,4.64,.85,1.81,1.23,3.58,1.12,5.28-.32,4.27-.61,8.51-.88,12.72-.27,4.21-.51,8.46-.72,12.72-.64,11.09-.96,22.13-.96,33.12,.96-.11,1.95-.16,2.96-.16s2-.05,2.96-.16c12.27-.75,24.59-1.06,36.96-.96,.21,0,.45,.03,.72,.08,.27,.06,.5,.08,.72,.08,.1-1.6,.19-3.17,.24-4.72,.05-1.54,.13-3.12,.24-4.72,.42-7.25,.93-14.45,1.52-21.6,.58-7.14,1.3-14.34,2.16-21.6,0-2.56,.64-4.91,1.92-7.04,.32-.53,.67-1.01,1.04-1.44,.37-.42,.72-.9,1.04-1.44,1.81-1.81,3.89-3.04,6.24-3.68l3.84-.48c2.02,0,3.84,.43,5.44,1.28,1.71,.53,3.2,1.49,4.48,2.88,1.49,1.5,2.45,2.99,2.88,4.48,.85,1.6,1.28,3.42,1.28,5.44-.54,4.05-.99,8.11-1.36,12.16-.38,4.05-.72,8.11-1.04,12.16-.54,7.15-.99,14.3-1.36,21.44-.38,7.15-.67,14.35-.88,21.6-.21,7.26-.27,14.48-.16,21.68,.1,7.2,.26,14.43,.48,21.68,0,2.56-.64,4.96-1.92,7.2-.85,.85-1.6,1.76-2.24,2.72-1.81,1.81-3.9,3.04-6.24,3.68-.64,.11-1.28,.19-1.92,.24-.64,.05-1.23,.13-1.76,.24-1.81,.1-3.63-.27-5.44-1.12-1.92-.75-3.47-1.76-4.64-3.04-1.28-1.28-2.24-2.77-2.88-4.48-.85-1.81-1.23-3.62-1.12-5.44-.32-8.1-.48-16.21-.48-24.32v-5.76c-.32,.11-.59,.11-.8,0h-10.4c-5.44,.11-10.8,.27-16.08,.48-5.28,.21-10.64,.48-16.08,.8,.21,4.8,.45,9.6,.72,14.4,.27,4.8,.56,9.6,.88,14.4,0,2.56-.64,4.96-1.92,7.2-.32,.53-.67,1.01-1.04,1.44-.38,.43-.77,.91-1.2,1.44-1.71,1.71-3.74,2.88-6.08,3.52l-3.84,.48c-1.71,.1-3.52-.27-5.44-1.12-1.71-.64-3.2-1.6-4.48-2.88-1.39-1.28-2.35-2.83-2.88-4.64-.53-.85-.88-1.73-1.04-2.64-.16-.9-.24-1.84-.24-2.8Z"/><path d="M1276.42,217.3c-1.49-1.28-2.45-2.78-2.88-4.48-.54-.85-.88-1.73-1.04-2.64-.16-.91-.24-1.84-.24-2.8,.21-4.37,.34-8.69,.4-12.96,.05-4.27,.19-8.64,.4-13.12,.32-7.68,.61-15.36,.88-23.04,.27-7.68,.61-15.36,1.04-23.04,.43-7.79,.83-15.54,1.2-23.28,.37-7.73,.82-15.49,1.36-23.28,0-2.45,.64-4.8,1.92-7.04,.43-.53,.8-1.01,1.12-1.44,.32-.42,.69-.91,1.12-1.44,1.71-1.7,3.78-2.88,6.24-3.52,.64-.21,1.25-.34,1.84-.4,.58-.05,1.2-.13,1.84-.24,.96,0,1.89,.08,2.8,.24,.91,.16,1.79,.51,2.64,1.04,1.92,.75,3.41,1.71,4.48,2.88,1.28,1.18,2.29,2.72,3.04,4.64,.85,1.81,1.23,3.58,1.12,5.28-.22,4.48-.46,8.85-.72,13.12-.27,4.27-.51,8.59-.72,12.96-.43,7.68-.83,15.36-1.2,23.04-.38,7.68-.72,15.42-1.04,23.2-.32,7.68-.61,15.39-.88,23.12-.27,7.74-.51,15.5-.72,23.28,0,2.56-.64,4.96-1.92,7.2-.32,.42-.67,.85-1.04,1.28-.38,.43-.72,.91-1.04,1.44-1.81,1.81-3.9,3.04-6.24,3.68l-3.84,.48c-1.71,.1-3.52-.27-5.44-1.12-1.71-.64-3.2-1.66-4.48-3.04Z"/><path d="M1374.98,196.98c-1.5-1.81-2.88-3.62-4.16-5.44-1.28-1.81-2.51-3.62-3.68-5.44-1.81-2.99-3.57-5.92-5.28-8.8-1.71-2.88-3.47-5.76-5.28-8.64-1.81-3.09-3.68-6.11-5.6-9.04-1.92-2.93-3.84-5.89-5.76-8.88-1.07-1.6-2.11-3.17-3.12-4.72-1.01-1.54-2.05-3.12-3.12-4.72,.21,3.31,.42,6.62,.64,9.92,.21,3.31,.43,6.62,.64,9.92,.53,6.51,1.06,13.01,1.6,19.52,.53,6.51,1.12,13.01,1.76,19.52,0,2.56-.64,4.96-1.92,7.2-.64,.96-1.39,1.87-2.24,2.72-1.92,1.92-3.95,3.15-6.08,3.68l-3.84,.48c-1.71,.1-3.52-.27-5.44-1.12-1.71-.64-3.2-1.66-4.48-3.04-1.49-1.28-2.45-2.77-2.88-4.48-.54-.85-.88-1.73-1.04-2.64-.16-.9-.24-1.84-.24-2.8-.32-3.73-.67-7.41-1.04-11.04-.38-3.62-.67-7.3-.88-11.04-1.07-12.8-2.03-25.87-2.88-39.2-.43-6.5-.77-13.01-1.04-19.52-.27-6.5-.51-13.07-.72-19.68-.22-2.45,.34-4.77,1.68-6.96,1.33-2.18,3.07-3.92,5.2-5.2,2.24-1.28,4.64-1.92,7.2-1.92s4.8,.64,7.04,1.92c1.28,.64,2.48,1.39,3.6,2.24,1.12,.86,2.27,1.71,3.44,2.56,.64,.54,1.28,1.09,1.92,1.68,.64,.59,1.22,1.2,1.76,1.84,1.06,1.07,2.02,2.16,2.88,3.28,.85,1.12,1.71,2.27,2.56,3.44,.53,.64,1.06,1.31,1.6,2,.53,.69,1.06,1.47,1.6,2.32,4.27,5.98,8.42,11.98,12.48,18,4.05,6.03,8.1,12.19,12.16,18.48,1.28,2.03,2.56,4.03,3.84,6,1.28,1.97,2.56,4.03,3.84,6.16,0-1.49,.02-2.93,.08-4.32,.05-1.38,.08-2.83,.08-4.32,0-2.24,.02-5.14,.08-8.72,.05-3.57,.08-7.3,.08-11.2s-.03-7.62-.08-11.2c-.06-3.57-.14-6.48-.24-8.72,0-2.56,.64-4.91,1.92-7.04,.43-.53,.8-1.01,1.12-1.44,.32-.43,.69-.91,1.12-1.44,1.81-1.81,3.89-3.04,6.24-3.68,.53-.11,1.12-.19,1.76-.24,.64-.05,1.28-.13,1.92-.24,1.71-.1,3.52,.27,5.44,1.12,1.71,.64,3.2,1.66,4.48,3.04,1.39,1.28,2.4,2.78,3.04,4.48,.85,1.92,1.23,3.73,1.12,5.44,.21,2.78,.34,5.5,.4,8.16,.05,2.67,.13,5.33,.24,8,0,2.46-.03,5.58-.08,9.36-.06,3.79-.14,7.68-.24,11.68-.11,4-.27,7.89-.48,11.68-.21,3.79-.38,6.86-.48,9.2-.32,5.44-.77,10.83-1.36,16.16-.59,5.33-1.31,10.67-2.16,16-.64,2.46-1.81,4.54-3.52,6.24-1.28,1.39-2.83,2.35-4.64,2.88-1.39,.85-3.2,1.28-5.44,1.28-2.45,0-4.8-.64-7.04-1.92-3.84-2.45-7.2-5.38-10.08-8.8Z"/><path d="M1447.3,113.46c-.54,3.42-.85,6.67-.96,9.76-.32,2.88-.48,5.66-.48,8.32,4.8,0,9.6-.32,14.4-.96,2.45,0,4.8,.64,7.04,1.92,.53,.43,1.01,.83,1.44,1.2,.42,.38,.9,.72,1.44,1.04,1.71,1.71,2.88,3.79,3.52,6.24,.1,.64,.21,1.28,.32,1.92,.1,.64,.21,1.23,.32,1.76,0,2.24-.43,4.05-1.28,5.44-.64,1.82-1.6,3.36-2.88,4.64-1.28,1.28-2.83,2.24-4.64,2.88-1.71,.85-3.47,1.28-5.28,1.28-2.24,.21-4.48,.4-6.72,.56-2.24,.16-4.43,.24-6.56,.24,0,.53,.03,1.09,.08,1.68,.05,.59,.13,1.15,.24,1.68,.53,3.95,1.17,7.68,1.92,11.2,.32,1.5,.64,2.91,.96,4.24,.32,1.33,.75,2.69,1.28,4.08,.32,.85,.69,1.55,1.12,2.08l.32,.32,.16,.16c.21,.11,.53,.16,.96,.16,.75,.21,1.54,.21,2.4,0,2.13-.42,4.26-1.07,6.4-1.92,4.8-2.13,9.23-4.69,13.28-7.68,1.71-1.71,3.73-2.88,6.08-3.52,.64-.1,1.25-.18,1.84-.24,.58-.05,1.2-.13,1.84-.24,2.56,0,4.96,.64,7.2,1.92,.53,.43,1.01,.8,1.44,1.12,.43,.32,.85,.7,1.28,1.12,1.38,1.28,2.4,2.78,3.04,4.48,.85,1.92,1.23,3.74,1.12,5.44,.11,1.82-.27,3.63-1.12,5.44-.64,1.71-1.66,3.2-3.04,4.48-2.24,1.81-4.43,3.52-6.56,5.12-2.88,1.92-5.76,3.68-8.64,5.28-3.84,2.13-7.84,3.84-12,5.12-.85,.21-1.63,.42-2.32,.64-.7,.21-1.42,.43-2.16,.64-1.39,.21-2.75,.42-4.08,.64-1.33,.21-2.69,.37-4.08,.48-1.39,0-2.72-.08-4-.24-1.28-.16-2.61-.35-4-.56-.64-.11-1.31-.24-2-.4-.69-.16-1.36-.4-2-.72-.85-.32-1.73-.67-2.64-1.04-.91-.37-1.79-.83-2.64-1.36-.85-.42-1.63-.93-2.32-1.52-.7-.58-1.36-1.14-2-1.68-1.18-.75-2.14-1.71-2.88-2.88-.85-1.07-1.65-2.08-2.4-3.04-.75-.96-1.39-2.03-1.92-3.2-.54-1.17-1.07-2.34-1.6-3.52-.53-1.17-1.01-2.4-1.44-3.68-.54-1.38-.96-2.8-1.28-4.24-.32-1.44-.64-2.91-.96-4.4-.32-1.81-.64-3.6-.96-5.36-.32-1.76-.59-3.54-.8-5.36-1.28-8.32-2.08-16.8-2.4-25.44-.21-3.62-.27-7.22-.16-10.8,.1-3.57,.27-7.22,.48-10.96,.21-1.81,.4-3.65,.56-5.52,.16-1.87,.35-3.71,.56-5.52,.32-2.24,.64-4.5,.96-6.8,.32-2.29,.85-4.5,1.6-6.64,.32-.96,.67-1.89,1.04-2.8,.37-.9,.77-1.79,1.2-2.64,.43-1.07,.75-1.81,.96-2.24,1.17-2.13,2.72-4.21,4.64-6.24,.85-.96,1.76-1.84,2.72-2.64s1.97-1.57,3.04-2.32c1.06-.75,2.21-1.38,3.44-1.92,1.23-.53,2.42-1.01,3.6-1.44,.42-.11,1.17-.27,2.24-.48,.96-.21,1.95-.37,2.96-.48,1.01-.11,2.05-.16,3.12-.16,1.06,.11,2.1,.21,3.12,.32,1.01,.11,2,.27,2.96,.48,.53,.11,.98,.19,1.36,.24,.37,.05,.83,.13,1.36,.24,1.71,.43,3.41,.88,5.12,1.36,1.71,.48,3.41,.99,5.12,1.52,4.05,1.17,8.02,2.51,11.92,4,3.89,1.5,7.71,3.09,11.44,4.8,2.24,1.39,3.95,3.09,5.12,5.12l1.44,3.36c.64,2.46,.64,4.91,0,7.36l-1.44,3.36c-.96,1.81-2.19,3.15-3.68,4-1.17,1.17-2.77,2.03-4.8,2.56-1.71,.54-3.58,.64-5.6,.32-1.81-.11-3.57-.69-5.28-1.76-.22-.11-.4-.19-.56-.24-.16-.05-.35-.13-.56-.24-.85-.32-1.68-.67-2.48-1.04-.8-.37-1.63-.67-2.48-.88-1.92-.85-3.87-1.6-5.84-2.24-1.98-.64-3.98-1.22-6-1.76-1.6-.53-3.23-1.01-4.88-1.44-1.65-.42-3.33-.8-5.04-1.12-.11,0-.19-.03-.24-.08-.06-.05-.14-.08-.24-.08-.11,.11-.19,.21-.24,.32-.06,.11-.14,.22-.24,.32-.21,.21-.38,.48-.48,.8-.11,.32-.27,.59-.48,.8-.53,1.28-.91,2.56-1.12,3.84-.21,1.28-.43,2.56-.64,3.84Z"/></g></g></g></svg>