<?xml version="1.0" encoding="UTF-8"?><svg id="Layer_2" xmlns="http://www.w3.org/2000/svg" viewBox="0 0 1526.3 260.28"><defs><style>.cls-1{fill:#ffa733;}.cls-2{font-family:Lets-Coffee, 'Lets Coffee';font-size:160px;}</style></defs><g id="Layer_1-2"><g><g><path class="cls-1" d="M174.65,36.09c-43.29-22.3-95.33-16.71-132.71,14.38C8.66,78.14-6.01,123.09,2.26,165.23c8.24,41.96,40.37,76.71,80.88,89.63,41.18,13.13,87.5,1.86,118.51-28.03,38.92-37.52,46.93-97.87,20.51-144.8-7.89-14.02-29.5-1.43-21.59,12.62,5.53,9.83,9.24,20.29,11.19,31.41,.88,5.01,1.16,10.13,1.16,15.21,0,4.4-.45,10.78-.84,13.29-.65,4.25-1.59,8.45-2.76,12.58-.55,1.94-1.15,3.86-1.81,5.76-.44,1.26-.9,2.51-1.38,3.76-.85,2.2,.25-.41-.8,1.92-1.8,4.02-3.86,7.92-6.15,11.68-1.99,3.27-5.02,7.61-6.36,9.26-2.75,3.39-5.71,6.61-8.85,9.64s-6.83,6.15-9.02,7.7c-3.4,2.41-6.88,4.68-10.52,6.72-4.07,2.27-8.51,4.33-11.43,5.43-3.77,1.42-7.62,2.62-11.52,3.59-4.82,1.2-9.37,1.98-12.84,2.29-4.42,.4-8.86,.53-13.29,.38-5.42-.18-8.2-.46-12.46-1.24-17.08-3.11-32.65-10.44-44.77-20.91-3.14-2.71-6.12-5.6-8.92-8.65-3.72-4.05-4.96-5.61-7.8-9.8-4.93-7.28-8.76-14.86-11.17-21.78-5.9-17.01-7.03-34.41-3.45-50.94s11.33-31.81,22.41-43.89c12.97-14.13,28.62-23.5,47.07-28.12,10.56-2.65,19.69-3.35,31.45-2.37s23.71,4.63,34.32,10.1c6,3.09,13.57,1.56,17.1-4.48,3.27-5.6,1.54-14-4.48-17.1h0Z"/><path class="cls-1" d="M133.34,72.63l38.34-13.38c6.37-2.22,10.61-8.56,8.73-15.38-1.7-6.19-8.97-10.96-15.38-8.73l-38.34,13.38c-6.37,2.22-10.61,8.56-8.73,15.38,1.7,6.19,8.97,10.96,15.38,8.73h0Z"/><path class="cls-1" d="M179.16,40.89L159.54,6.11c-7.9-14.01-29.51-1.43-21.59,12.62l19.62,34.78c7.9,14.01,29.51,1.43,21.59-12.62h0Z"/></g><text class="cls-2" transform="translate(265.71 211.22)"><tspan x="0" y="0">DINNERMACHINE</tspan></text></g></g></svg>